<?xml version="1.0" encoding="UTF-8"?>
<svg width="50px" height="50px" viewBox="0 0 50 50" version="1.1" xmlns="http://www.w3.org/2000/svg" xmlns:xlink="http://www.w3.org/1999/xlink">
    <title>Icon</title>
    <g id="Symbols" stroke="none" stroke-width="1" fill="none" fill-rule="evenodd" stroke-linecap="round" stroke-linejoin="round">
        <g id="Grid-[Dietary-Icons]" transform="translate(-96.000000, 0.000000)" stroke="#B29A7A" stroke-width="1.5">
            <g id="Icon-—-Soy-Free" transform="translate(82.000000, 1.000000)">
                <g id="Icon" transform="translate(15.000000, 0.000000)">
                    <path d="M24,48 C37.25484,48 48,37.25484 48,24 C48,10.745172 37.25484,0 24,0 C10.745172,0 0,10.745172 0,24 C0,37.25484 10.745172,48 24,48 Z" id="Path"></path>
                    <line x1="40.93644" y1="7.063476" x2="7.06362" y2="40.93632" id="Path"></line>
                    <path d="M29.26992,34.00188 C29.26992,37.82556 23.76024,41.418 23.5188,41.98332 C23.2194,41.364 17.77008,37.82556 17.77008,34.00188 C17.77008,32.40108 18.34716,30.94404 19.2936,29.85192 C19.74504,29.33028 19.74504,28.52856 19.27428,28.02744 C18.1902,26.87364 17.52144,25.28052 17.52144,23.52024 C17.52144,21.76008 18.1902,20.16684 19.27428,19.01304 C19.74504,18.51204 19.74756,17.7102 19.2936,17.18856 C18.34716,16.09656 17.77008,14.63952 17.77008,13.0386 C17.77008,9.214944 23.27976,5.622552 23.5212,5.057232 C23.8206,5.676516 29.26992,9.214944 29.26992,13.0386 C29.26992,14.63952 28.69284,16.09656 27.7464,17.18856 C27.29484,17.7102 27.29484,18.51204 27.76572,19.01304 C28.8498,20.16684 29.51856,21.76008 29.51856,23.52024 C29.51856,25.28052 28.8498,26.87364 27.76572,28.02744 C27.29484,28.52856 27.29244,29.33028 27.7464,29.85192 C28.69284,30.94404 29.26992,32.40108 29.26992,34.00188 L29.26992,34.00188 Z" id="Path"></path>
                    <path d="M26.04252,12.85332 C26.04252,14.42088 24.86172,15.59448 23.52132,15.59448 C22.18092,15.59448 21.00012,14.42088 21.00012,12.85332 C21.00012,11.28576 22.18092,10.112112 23.52132,10.112112 C24.86172,10.112112 26.04252,11.28576 26.04252,12.85332 Z" id="Path"></path>
                    <path d="M26.04252,23.51976 C26.04252,25.08732 24.86172,26.26092 23.52132,26.26092 C22.18092,26.26092 21.00012,25.08732 21.00012,23.51976 C21.00012,21.95208 22.18092,20.77848 23.52132,20.77848 C24.86172,20.77848 26.04252,21.95208 26.04252,23.51976 Z" id="Path"></path>
                    <path d="M26.04252,34.18668 C26.04252,35.75436 24.86172,36.92796 23.52132,36.92796 C22.18092,36.92796 21.00012,35.75436 21.00012,34.18668 C21.00012,32.61912 22.18092,31.44552 23.52132,31.44552 C24.86172,31.44552 26.04252,32.61912 26.04252,34.18668 Z" id="Path"></path>
                </g>
            </g>
        </g>
    </g>
</svg>