<?xml version="1.0" encoding="UTF-8"?>
<svg width="72px" height="72px" viewBox="0 0 72 72" version="1.1" xmlns="http://www.w3.org/2000/svg" xmlns:xlink="http://www.w3.org/1999/xlink">
    <title>Value</title>
    <g id="Value" stroke="none" stroke-width="1" fill="none" fill-rule="evenodd" stroke-linecap="round" stroke-linejoin="round">
        <g id="icon__value" transform="translate(5.000000, 1.000000)" stroke="#B29A7A" stroke-width="2">
            <path d="M34.7423973,42.2570764 C39.8481008,40.9211684 43.9655247,37.1239478 45.7406408,32.2103826" id="Path"></path>
            <path d="M52.9050971,44.6266458 C53.6096586,44.3338676 54.0854334,43.6475894 54.1037984,42.869813 L54.2044384,35.4766518 C54.2135801,35.0832335 54.3325034,34.7080986 54.5612899,34.3878138 L58.8160021,28.3488438 C59.291777,27.6717073 59.291777,26.7750076 58.8160021,26.0979528 L54.5612899,20.0589012 C54.3325034,19.7386979 54.2135801,19.3544214 54.2044384,18.9609215 L54.1037984,11.5769019 C54.0854334,10.7534172 53.5547269,10.0214307 52.7770321,9.75607745 L45.7864308,7.37703982 C45.4112959,7.2581165 45.0818693,7.02018825 44.8530828,6.69998498 L40.4336573,0.77991386 C39.9395991,0.12111788 39.0794661,-0.153385206 38.292548,0.0845185566 L31.237955,2.2805106 C30.8628201,2.3994584 30.4510369,2.3994584 30.075902,2.2805106 L23.0212273,0.0845185566 C22.2343909,-0.153385206 21.3742578,0.12111788 20.8801179,0.77991386 L16.4606925,6.69998498 C16.2319876,7.02018825 15.902561,7.24897483 15.5274261,7.37703982 L8.53682479,9.75607745 C7.74990669,10.0214307 7.22834185,10.7534172 7.21005851,11.5769019 L7.10941853,18.9609215 C7.10027687,19.3544214 6.98135355,19.7386979 6.75256697,20.0589012 L2.49783035,26.0979528 C2.02203099,26.7750076 2.02203099,27.6717073 2.49783035,28.3488438 L6.75256697,34.3878138 C6.98135355,34.7080986 7.10027687,35.0832335 7.10941853,35.4766518 L7.21005851,42.869813 C7.22834185,43.6475894 7.69505668,44.3338676 8.40875981,44.6266458 C8.44532648,44.6540708 8.49103482,44.6632941 8.53682479,44.6815775 L15.5274261,47.0605335 C15.902561,47.1886801 16.2319876,47.4265267 16.4606925,47.7468116 L20.8801179,53.6577166 C21.3742578,54.3256297 22.2343909,54.6001246 23.0212273,54.3530547 L28.7949256,52.5596552 L30.075902,52.166237 C30.4510369,52.0473137 30.8628201,52.0473137 31.237955,52.166237 L32.5189313,52.5596552" id="Path"></path>
            <path d="M46.6923538,26.7568059 C46.6923538,28.6692103 46.3537856,30.5083181 45.7407225,32.2102193 C43.9656063,37.1237846 39.8481008,40.9210052 34.7424789,42.2569131 C33.433996,42.604623 32.070663,42.7876196 30.6523984,42.7876196 C29.2341338,42.7876196 27.8708009,42.604623 26.5715412,42.2569131 C21.456696,40.9210052 17.3483322,37.1237846 15.5732161,32.2102193 C14.9601529,30.5083181 14.6215847,28.6692103 14.6215847,26.7568059 C14.6215847,17.8996717 21.8043243,10.7260738 30.6523984,10.7260738 C39.5004726,10.7260738 46.6923538,17.8996717 46.6923538,26.7568059 L46.6923538,26.7568059 Z" id="Path"></path>
            <path d="M34.7425605,42.2570764 C39.8482641,40.9211684 43.9657696,37.1239478 45.7408857,32.2103826" id="Path"></path>
            <path d="M61.3141263,59.1847531 L49.1720314,59.7794513 L42.5840716,70 L32.5190945,52.560145 L38.2927112,54.3535445 C39.0796293,54.6006144 39.9397624,54.3260378 40.4338206,53.6581247 L44.853246,47.7472197 C45.0820326,47.4270164 45.4114591,47.1890882 45.786594,47.0610232 L52.7771954,44.6819856 C52.7771954,44.6819856 52.8686937,44.6545606 52.9052604,44.6270539 L61.3141263,59.1847531 L61.3141263,59.1847531 Z" id="Path"></path>
            <polyline id="Path" points="8.40884143 44.6270539 0 59.1847531 12.1420703 59.7794513 18.7300301 70 28.7950073 52.560145"></polyline>
        </g>
    </g>
</svg>