<?xml version="1.0" encoding="UTF-8"?>
<svg width="50px" height="50px" viewBox="0 0 50 50" version="1.1" xmlns="http://www.w3.org/2000/svg" xmlns:xlink="http://www.w3.org/1999/xlink">
    <title>Icon</title>
    <g id="Symbols" stroke="none" stroke-width="1" fill="none" fill-rule="evenodd" stroke-linecap="round" stroke-linejoin="round">
        <g id="Grid-[Dietary-Icons]" transform="translate(-14.000000, 0.000000)" stroke="#B29A7A" stroke-width="1.5">
            <g id="Icon-—-Gluten-Free" transform="translate(0.000000, 1.000000)">
                <g id="Icon" transform="translate(15.000000, 0.000000)">
                    <path d="M24,48 C37.25484,48 48,37.25484 48,24 C48,10.74516 37.25484,0 24,0 C10.74516,0 0,10.74516 0,24 C0,37.25484 10.74516,48 24,48 Z" id="Path"></path>
                    <line x1="40.93644" y1="7.06344" x2="7.06368" y2="40.93632" id="Path"></line>
                    <path d="M27.36384,11.54424 C27.36384,14.1192 26.02296,16.37652 24,17.66016 C21.97704,16.37388 20.63616,14.11656 20.63616,11.54424 C20.63616,8.97192 21.97704,6.70932 24,5.4258 C26.02296,6.71196 27.36384,8.97192 27.36384,11.54424 Z" id="Path"></path>
                    <path d="M27.36384,11.54424 C27.36384,14.1192 26.02296,16.37652 24,17.66016 C21.97704,16.37388 20.63616,14.11656 20.63616,11.54424 C20.63616,8.97192 21.97704,6.70932 24,5.4258 C26.02296,6.71196 27.36384,8.97192 27.36384,11.54424 Z" id="Path"></path>
                    <path d="M21.87804,18.02724 C23.69796,19.84716 24.34632,22.39356 23.82564,24.73152 C21.48756,25.25232 18.94128,24.60396 17.12136,22.78404 C15.30144,20.96412 14.65044,18.41784 15.17376,16.07976 C17.51184,15.55908 20.05812,16.20732 21.87804,18.02724 Z" id="Path"></path>
                    <path d="M26.12196,18.02724 C27.94188,16.20732 30.48828,15.55908 32.82624,16.07976 C33.34704,18.41784 32.69868,20.96412 30.87876,22.78404 C29.05884,24.60396 26.51256,25.25484 24.17448,24.73152 C23.6538,22.39356 24.30204,19.84716 26.12196,18.02724 Z" id="Path"></path>
                    <path d="M21.87816,27.47256 C23.69808,29.29248 24.34632,31.83888 23.82564,34.17684 C21.48756,34.69764 18.94128,34.04928 17.12136,32.22936 C15.30144,30.40944 14.65056,27.86316 15.17388,25.52508 C17.51196,25.0044 20.05824,25.65264 21.87816,27.47256 L21.87816,27.47256 Z" id="Path"></path>
                    <path d="M26.12196,27.47028 C27.94188,25.65036 30.48828,25.002 32.82624,25.5228 C33.34704,27.86076 32.69868,30.40716 30.87876,32.22708 C29.05884,34.047 26.51256,34.69788 24.17448,34.17456 C23.6538,31.83648 24.30204,29.2902 26.12196,27.47028 L26.12196,27.47028 Z" id="Path"></path>
                    <line x1="24.00012" y1="17.66016" x2="24.00012" y2="42.57408" id="Path"></line>
                </g>
            </g>
        </g>
    </g>
</svg>