<?xml version="1.0" encoding="UTF-8"?>
<svg width="72px" height="72px" viewBox="0 0 72 72" version="1.1" xmlns="http://www.w3.org/2000/svg" xmlns:xlink="http://www.w3.org/1999/xlink">
    <title>Chef</title>
    <g id="Chef" stroke="none" stroke-width="1" fill="none" fill-rule="evenodd">
        <g id="icon__chef" transform="translate(6.000000, 1.000000)" stroke="#B29A7A" stroke-width="2">
            <path d="M23.0357111,54.5801774 L24.7807015,69.9998409 L0.0366943557,69.9998409 C0.0366943557,69.9998409 0,66.5342805 0,61.918969 C0,54.8084731 6.58046809,51.1104807 13.4626445,49.0067399 C16.2677382,48.1464549 18.3796722,47.3799541 19.8922306,46.2261461 C21.747312,50.9963328 27.2229085,52.3988797 30.4193663,52.3988797 C26.3911804,53.9848586 23.0357111,54.5801774 23.0357111,54.5801774 L23.0357111,54.5801774 Z" id="Path" stroke-linecap="round" stroke-linejoin="round"></path>
            <path d="M59.6278508,61.9191281 C59.6278508,66.5344396 59.5911007,70 59.5911007,70 L24.7807015,70 L23.0356315,54.5803365 C23.0356315,54.5803365 26.3911009,53.9850973 30.4193663,52.3991184 C27.2229085,52.3991184 21.747312,50.9965715 19.8922306,46.2263052 C21.4945163,45.0032131 22.4281423,43.3478705 22.803279,40.6854814 C24.841872,42.548756 27.2432722,43.6210298 29.8118771,43.6210298 C32.3804024,43.6210298 34.785939,42.548756 36.8244524,40.6854814 C37.5542827,45.8553049 40.3797402,47.2374085 46.1651665,49.006899 C53.0473668,51.1107193 59.6278508,54.8086322 59.6278508,61.9191281 Z" id="Path" stroke-linecap="round" stroke-linejoin="round"></path>
            <path d="M43.2012203,25.1519882 C42.8790609,31.7324722 40.4043197,37.4241144 36.8246115,40.6857996 C34.7860185,42.5490742 32.3846183,43.621348 29.8119566,43.621348 C27.2392949,43.621348 24.8419515,42.5490742 22.8033585,40.6857996 C19.2195935,37.4241144 16.7447728,31.7324722 16.4226929,25.1519882 L43.2012203,25.1519882 L43.2012203,25.1519882 Z" id="Path"></path>
            <path d="M46.3649849,11.8359064 C46.3649849,13.6094537 45.7983025,15.2361599 44.8564834,16.5408658 C44.6730514,16.7896047 44.5873808,17.1034914 44.5873808,17.4174576 L44.5873808,23.7532595 C44.5873808,24.5238967 43.9961984,25.1517496 43.2705045,25.1517496 L16.3574656,25.1517496 C15.6316921,25.1517496 15.0405097,24.5238967 15.0405097,23.7532595 L15.0405097,17.4174576 C15.0405097,17.1034914 14.9549187,16.7896047 14.7714072,16.5408658 C13.829588,15.2361599 13.2629056,13.6094537 13.2629056,11.8359064 C13.2629056,7.55492477 16.5490908,4.08119508 20.5976404,4.08119508 C20.7933224,4.08119508 20.9890044,4.0893485 21.1806296,4.10565534 C21.6046869,4.14642242 22.0164941,3.97926543 22.2937103,3.64086281 C24.1161781,1.41067644 26.8111808,0 29.8119566,0 C32.8126529,0 35.5117125,1.41067644 37.3341802,3.64086281 C37.611476,3.97926543 38.0232037,4.14642242 38.4472609,4.10565534 C38.6388861,4.0893485 38.8345681,4.08119508 39.0302501,4.08119508 C43.0788793,4.08119508 46.3649849,7.55492477 46.3649849,11.8359064 Z" id="Path"></path>
            <line x1="37.7747034" y1="20.3734492" x2="37.7747034" y2="25.1518291" id="Path" stroke-linecap="round" stroke-linejoin="round"></line>
            <line x1="21.8535053" y1="20.3734492" x2="21.8535053" y2="25.1518291" id="Path" stroke-linecap="round" stroke-linejoin="round"></line>
            <line x1="29.8121157" y1="20.3734492" x2="29.8121157" y2="25.1518291" id="Path" stroke-linecap="round" stroke-linejoin="round"></line>
            <path d="M40.0292625,46.44251 C37.3260666,49.1130127 33.5874264,51.1474694 30.4194459,52.3991184" id="Path" stroke-linecap="round" stroke-linejoin="round"></path>
        </g>
    </g>
</svg>