<?xml version="1.0" encoding="UTF-8"?>
<svg width="72px" height="72px" viewBox="0 0 72 72" version="1.1" xmlns="http://www.w3.org/2000/svg" xmlns:xlink="http://www.w3.org/1999/xlink">
    <title>No Hassle</title>
    <g id="No-Hassle" stroke="none" stroke-width="1" fill="none" fill-rule="evenodd" stroke-linecap="round" stroke-linejoin="round">
        <g id="icon__no-hassle" transform="translate(3.000000, 1.000000)" stroke="#B29A7A" stroke-width="2">
            <path d="M57.0898387,32.6824106 C57.8499138,35.2809461 58.2589732,38.0281937 58.2589732,40.870562 C58.2589732,56.9576169 45.2165901,70 29.1294542,70 C13.0423993,70 0,56.9576169 0,40.870562 C0,24.7834261 13.0423993,11.741043 29.1294542,11.741043 C33.706905,11.741043 38.0364752,12.7944945 41.8909277,14.67837" id="Path"></path>
            <path d="M50.6121598,21.2013831 C53.1321701,23.944502 55.1275999,27.1751247 56.4454466,30.732153" id="Path"></path>
            <path d="M29.1295352,57.440911 C38.2811985,57.440911 45.7000461,50.0220634 45.7000461,40.8704 C45.7000461,31.7188177 38.2811985,24.2999701 29.1295352,24.2999701 C19.9779528,24.2999701 12.5591052,31.7188177 12.5591052,40.8704 C12.5591052,50.0220634 19.9779528,57.440911 29.1295352,57.440911 Z" id="Path"></path>
            <path d="M58.3167742,18.6358767 C51.2193132,18.6358767 45.460342,24.3907193 45.460342,31.492309 C45.460342,24.3907193 39.7054994,18.6358767 32.6080383,18.6358767 C39.7054994,18.6358767 45.460342,12.8810341 45.460342,5.77942014 C45.460342,12.8810341 51.2193132,18.6358767 58.3167742,18.6358767 Z" id="Path"></path>
            <path d="M65.4803745,5.97792691 C62.179565,5.97792691 59.5025043,8.65500377 59.5025043,11.9558133 C59.5025043,8.65500377 56.8254436,5.97792691 53.5245531,5.97792691 C56.8254436,5.97792691 59.5025043,3.30087434 59.5025043,-2.87605614e-15 C59.5025043,3.30087434 62.179565,5.97792691 65.4803745,5.97792691 Z" id="Path"></path>
            <path d="M65.4803745,31.4926328 C62.179565,31.4926328 59.5025043,34.1696125 59.5025043,37.470503 C59.5025043,34.1696125 56.8254436,31.4926328 53.5245531,31.4926328 C56.8254436,31.4926328 59.5025043,28.8155721 59.5025043,25.5146816 C59.5025043,28.8155721 62.179565,31.4926328 65.4803745,31.4926328 Z" id="Path"></path>
        </g>
    </g>
</svg>