<?xml version="1.0" encoding="UTF-8"?>
<svg width="72px" height="72px" viewBox="0 0 72 72" version="1.1" xmlns="http://www.w3.org/2000/svg" xmlns:xlink="http://www.w3.org/1999/xlink">
    <title>Subscription [Swap]</title>
    <g id="Subscription-[Swap]" stroke="none" stroke-width="1" fill="none" fill-rule="evenodd" stroke-linecap="round" stroke-linejoin="round">
        <g id="icon__subscription--swap" transform="translate(1.000000, 2.000000)" stroke="#B29A7A" stroke-width="2">
            <path d="M31.0529034,8.37196444 L31.0529034,10.9513551 L14.302647,10.9513551 L14.302647,8.37196444 C14.302647,3.74039798 18.0556216,0 22.6809104,0 C24.990384,0 27.0802469,0.935097714 28.5989942,2.4475745 C30.1177415,3.96005128 31.0591739,6.06249092 31.0591739,8.37196444 L31.0529034,8.37196444 Z" id="Path"></path>
            <polygon id="Path" points="40.7549581 29.1198881 33.801313 29.1198881 32.2700247 30.5445064 31.0148528 30.600941 29.8475393 49.3217781 4.16680086 49.3217781 4.98265902 10.9513551 40.3721004 10.9513551"></polygon>
            <polygon id="Path" points="4.16715714 49.3280486 1.80744111 47.5206439 0 47.6838198 2.19654083 12.4324081 3.44543508 12.382244 4.9830153 10.9513551"></polygon>
            <path d="M30.9655437,22.3420311 L21.068533,22.3420311 C20.177336,22.3420311 19.4556567,23.0637104 19.4556567,23.9486369 C19.4556567,24.8334921 20.177336,25.5615132 21.068533,25.5615132 C21.9596587,25.5615132 22.6814092,24.8397626 22.6814092,23.9486369 L22.6814092,18.7459619 C22.6814092,17.8547649 23.4031598,17.1330856 24.2942855,17.1330856 C25.1854825,17.1330856 25.9071618,17.8547649 25.9071618,18.7459619 C25.9071618,19.6371589 25.1854825,20.3525677 24.2942855,20.3525677 L14.3972748,20.3525677" id="Path"></path>
            <line x1="16.0160653" y1="23.1452984" x2="14.5977175" y2="28.0780562" id="Path"></line>
            <line x1="30.0995" y1="27.6074113" x2="29.3401264" y2="24.971586" id="Path"></line>
            <path d="M59.8711227,26.5405686 L59.8711227,29.1199593 L43.1209375,29.1199593 L43.1209375,26.5405686 C43.1209375,21.9090093 46.8675704,18.1685757 51.499201,18.1685757 C53.8086745,18.1685757 55.8985375,19.1036663 57.4172848,20.6161431 C58.9360321,22.1286199 59.8711227,24.2310239 59.8711227,26.5405686 Z" id="Path"></path>
            <polygon id="Path" points="69.190391 29.1198881 33.8008854 29.1198881 33.3741341 49.3218494 32.9850772 67.4903823 69.9999287 67.4903823"></polygon>
            <polygon id="Path" points="33.8012417 29.1198881 33.3744904 49.3218494 32.9854334 67.4903823 30.6257245 65.6892481 28.8182485 65.852424 29.8474681 49.3218494 31.0147815 30.6010123 32.2699534 30.5445064"></polygon>
            <path d="M49.8873223,40.5105641 L51.4939281,40.5105641 L51.4939281,42.1171699 C51.4939281,43.0083668 50.7785193,43.7301174 49.8873223,43.7301174 C48.9961966,43.7301174 48.274446,43.0083668 48.274446,42.1171699 C48.274446,41.671607 48.4564335,41.2699377 48.7451622,40.9812803 C49.0400902,40.6926228 49.4417594,40.5105641 49.8873223,40.5105641 Z" id="Path"></path>
            <path d="M54.7192531,36.9145661 C54.7192531,37.8056918 53.9913033,38.5211719 53.1063768,38.5211719 L51.4935005,38.5211719 L51.4935005,36.9145661 C51.4935005,36.0233691 52.2151798,35.3016898 53.1063768,35.3016898 C53.9975738,35.3016898 54.7192531,36.0233691 54.7192531,36.9145661 Z" id="Path"></path>
            <polyline id="Path" points="43.2030243 38.5211006 51.4934293 38.5211006 51.4934293 40.5105641 59.7838343 40.5105641"></polyline>
            <line x1="44.8342846" y1="41.3139026" x2="43.4159368" y2="46.2529309" id="Path"></line>
            <line x1="58.9177906" y1="45.7760155" x2="58.158417" y2="43.1401189" id="Path"></line>
            <path d="M24.896825,67.4966528 L9.76578669,67.4966528 C6.42079457,67.4966528 3.70335277,64.7854388 3.70335277,61.4341334 L3.70335277,55.2775563" id="Path"></path>
            <polyline id="Path" points="0 58.986566 3.70901761 55.2775563 7.41804877 58.986566"></polyline>
            <path d="M45.1041305,5.95574965 L60.2351689,5.95574965 C63.5802037,5.95574965 66.297617,8.66689243 66.297617,12.0181978 L66.297617,18.1748462" id="Path"></path>
            <polyline id="Path" points="70 14.4594947 66.2972607 18.1685044 62.588251 14.4594947"></polyline>
        </g>
    </g>
</svg>