<?xml version="1.0" encoding="UTF-8"?>
<svg width="50px" height="50px" viewBox="0 0 50 50" version="1.1" xmlns="http://www.w3.org/2000/svg" xmlns:xlink="http://www.w3.org/1999/xlink">
    <title>Icon</title>
    <g id="Symbols" stroke="none" stroke-width="1" fill="none" fill-rule="evenodd" stroke-linecap="round" stroke-linejoin="round">
        <g id="Grid-[Dietary-Icons]" transform="translate(-260.000000, 0.000000)" stroke="#B29A7A" stroke-width="1.5">
            <g id="Icon-—-Nut-Free" transform="translate(246.000000, 1.000000)">
                <g id="Icon" transform="translate(15.000000, 0.000000)">
                    <path d="M24,48 C37.25484,48 48,37.25484 48,24 C48,10.745172 37.25484,0 24,0 C10.745172,0 0,10.745172 0,24 C0,37.25484 10.745172,48 24,48 Z" id="Path"></path>
                    <line x1="40.93644" y1="7.063476" x2="7.063584" y2="40.93632" id="Path"></line>
                    <path d="M31.5366,26.92248 C32.17884,28.42788 32.49648,30.14916 32.38356,31.96872 C32.08716,36.76644 28.7346,40.64604 24.60348,40.98216 C19.69116,41.38104 15.5952,36.87024 15.5952,31.2474 C15.5952,29.64372 15.92928,28.12728 16.5198,26.79132 C17.15976,25.34868 17.15976,23.61108 16.5198,22.16856 C15.927,20.83248 15.59292,19.31616 15.59292,17.71236 C15.5952,12.09504 19.68408,7.587024 24.58932,7.97772 C28.72284,8.305572 32.07768,12.177 32.38116,16.97472 C32.49648,18.7998 32.17884,20.532 31.5342,22.04016 C30.88968,23.5482 30.87552,25.37604 31.5342,26.92248 L31.5366,26.92248 Z" id="Path"></path>
                    <path d="M19.776,14.92716 C20.43648,12.88704 21.74076,11.00124 23.808,10.315428" id="Path"></path>
                    <path d="M19.45356,32.71548 C18.4686,29.58288 20.6988,26.6352 20.30484,23.49204" id="Path"></path>
                    <path d="M23.808,38.64456 C22.05648,37.88424 20.6478,36.42432 19.776,34.69164" id="Path"></path>
                    <path d="M23.52,22.08012 C23.04,21.12012 22.56,19.4334 22.56,18.24012 C22.56,17.0964 23.1882,15.42588 24.48,13.92012" id="Path"></path>
                </g>
            </g>
        </g>
    </g>
</svg>