<?xml version="1.0" encoding="UTF-8"?>
<svg width="72px" height="72px" viewBox="0 0 72 72" version="1.1" xmlns="http://www.w3.org/2000/svg" xmlns:xlink="http://www.w3.org/1999/xlink">
    <title>Fresh</title>
    <g id="Fresh" stroke="none" stroke-width="1" fill="none" fill-rule="evenodd" stroke-linecap="round" stroke-linejoin="round">
        <g id="icon__fresh" transform="translate(1.000000, 1.000000)" stroke="#B29A7A" stroke-width="2">
            <path d="M58.8075501,44.1543325 C58.8114479,44.1817757 58.8154251,44.2092188 58.8154251,44.2405597 C58.8232206,44.2758779 58.8232206,44.3150938 58.8232206,44.3542302 C58.8349933,44.4718779 58.838891,44.5894461 58.846766,44.7070142 C58.8781069,45.1812642 58.8937774,45.6555937 58.8937774,46.1376391 C58.8937774,46.7138663 58.8742092,47.2861162 58.8310956,47.8505707 C58.8036524,48.2307184 58.7683342,48.5991729 58.7252206,48.9715251 C57.3259367,60.6518988 47.3819605,69.7101364 35.3213596,69.7101364 C23.2607587,69.7101364 13.3206803,60.6518988 11.9213964,48.9715251 C11.8782827,48.5991729 11.8430441,48.2307184 11.8156009,47.8544684 C11.7724873,47.2861162 11.7528396,46.7138663 11.7528396,46.1376391 C11.7528396,45.6555937 11.76851,45.1812642 11.7999305,44.7070142 C11.7999305,44.5894461 11.8116237,44.4757756 11.8194987,44.3621052 L11.8194987,44.3542302 C11.8194987,44.3150938 11.8194987,44.2758779 11.8272941,44.2405597 C11.8312714,44.2131166 11.8312714,44.1896507 11.8351691,44.1661052 C11.8351691,44.1583098 11.8351691,44.1543325 11.8351691,44.1504348" id="Path"></path>
            <path d="M58.8232206,44.3542302 C58.8232206,44.4717984 58.8075501,44.5893665 58.780107,44.7070142 C58.6468683,45.2674914 58.1882093,45.8084005 57.4552776,46.3139913 C54.2020279,48.559957 45.5201198,50.1670136 35.3213596,50.1670136 C25.1225994,50.1670136 16.444589,48.559957 13.1913394,46.3139913 C12.4583281,45.8084005 11.9997486,45.2674914 11.86651,44.7070142 C11.8351691,44.5893665 11.8194987,44.4717984 11.8194987,44.3542302 C11.8194987,44.1582302 11.858635,43.9622302 11.9370668,43.7741053 C13.1168849,40.8344238 23.1353156,38.5414468 35.3213596,38.5414468 C36.4266436,38.5414468 37.5123594,38.5610945 38.5746093,38.5963331 L38.5746093,42.9275031 L45.0811085,42.2180372 L43.7719496,38.929549 C51.87771,39.7016966 57.8158571,41.5516851 58.7095501,43.7741053 C58.7879024,43.9622302 58.8232206,44.1582302 58.8232206,44.3542302 L58.8232206,44.3542302 Z" id="Path"></path>
            <path d="M11.9213964,48.9712865 C13.3207598,51.8522634 23.2608383,54.0863768 35.3213596,54.0863768 C47.3819605,54.0863768 57.3260162,51.8522634 58.7253001,48.9712865" id="Path"></path>
            <line x1="58.831016" y1="47.8542298" x2="58.831016" y2="47.8504116" id="Path"></line>
            <line x1="11.8155214" y1="47.8542298" x2="11.8155214" y2="47.8504116" id="Path"></line>
            <path d="M37.810098,18.1712104 C37.5748821,19.0139149 36.9360526,19.6763694 36.1090186,19.9585171 C35.5524391,20.1506193 34.9762119,20.3074034 34.3843938,20.4288693 C26.2551675,22.1182554 18.2435093,16.6543583 16.4914413,8.21935929 C15.8995436,5.37375621 16.0955436,2.55165085 16.9304526,1.41301096e-15 C23.5310541,6.63586402 32.0796441,0.552657892 36.5832686,8.09391613 C38.4803479,11.2727112 38.7390297,14.8591767 37.810098,18.1712104 L37.810098,18.1712104 Z" id="Path"></path>
            <line x1="24.6639404" y1="8.69368878" x2="37.179223" y2="19.2765739" id="Path"></line>
            <path d="M40.2874613,31.1136521 C40.0405523,31.0352999 39.8366773,30.8549704 39.7308818,30.6158567 C39.4760978,30.0357318 39.2723024,29.4282432 39.127291,28.7972092 C37.7711207,22.8707554 41.9454271,16.9991878 48.4559036,15.6861312 C50.6508806,15.2432221 52.8340849,15.372563 54.8134938,15.9722561 C49.7258466,20.816892 54.4802779,27.0333685 48.6793467,30.3493 C46.0374834,31.8583566 43.0194497,31.9759248 40.2874613,31.1136521 L40.2874613,31.1136521 Z" id="Path"></path>
            <line x1="48.1463127" y1="21.6520396" x2="40.1072114" y2="30.7572886" id="Path"></line>
            <path d="M12.2387827,33.2222428 L12.2387827,36.3853675 C12.2387827,38.1570036 10.8041806,39.5916057 9.03254443,39.5916057 C8.87965808,39.5916057 8.75819219,39.7130716 8.75819219,39.865958 L8.75819219,67.561773 C8.75819219,68.9101479 7.6646014,69.9997614 6.32019587,69.9997614 C4.97185284,69.9997614 3.88220751,68.9062501 3.88220751,67.561773 L3.88220751,39.865958 C3.88220751,39.7130716 3.76070185,39.5916057 3.60783936,39.5916057 C1.83617934,39.5916057 0.401609045,38.1570036 0.401609045,36.3853675 L0.401609045,33.2222428 L12.2387827,33.2222428 L12.2387827,33.2222428 Z" id="Path"></path>
            <line x1="12.2386236" y1="33.2223224" x2="12.2386236" y2="24.9911983" id="Path"></line>
            <line x1="6.32023565" y1="33.2223224" x2="6.32023565" y2="24.9911983" id="Path"></line>
            <line x1="0.397727228" y1="33.2223224" x2="0.397727228" y2="24.9911983" id="Path"></line>
            <path d="M31.7897805,46.6666958 C33.1795985,46.6666958 34.3062006,45.5400937 34.3062006,44.1503552 C34.3062006,42.7606167 33.1795985,41.633935 31.7897805,41.633935 C30.400042,41.633935 29.2734399,42.7606167 29.2734399,44.1503552 C29.2734399,45.5400937 30.400042,46.6666958 31.7897805,46.6666958 Z" id="Path"></path>
            <polygon id="Path" points="45.0811881 42.2180372 38.5746888 42.9275031 38.5746888 36.5855833 42.729427 36.3112311 43.7720291 38.929549"></polygon>
            <polygon id="Path" points="27.4703832 28.7622092 31.7897805 27.562823 34.0866552 30.7337431 28.5638945 34.2887881"></polygon>
            <path d="M69.4333103,32.8932429 C69.4333103,35.4056857 68.4533899,37.620231 66.9639015,38.905924 C66.6464356,39.1802762 66.4504356,39.5721966 66.4504356,39.9955375 L66.4504356,67.5816594 C66.4504356,68.9181819 65.3686176,70 64.032095,70 C62.6954929,70 61.6136748,68.9181819 61.6136748,67.5816594 L61.6136748,40.1209807 C61.6136748,39.6858671 61.4059021,39.2821739 61.0688681,39.0038444 C59.5166978,37.7339014 58.4818911,35.4723448 58.4818911,32.8932429 C58.4818911,28.9226524 60.9316522,25.7008232 63.9575609,25.7008232 C66.9835492,25.7008232 69.4333103,28.9226524 69.4333103,32.8932429 L69.4333103,32.8932429 Z" id="Path"></path>
        </g>
    </g>
</svg>