<?xml version="1.0" encoding="UTF-8"?>
<svg width="72px" height="72px" viewBox="0 0 72 72" version="1.1" xmlns="http://www.w3.org/2000/svg" xmlns:xlink="http://www.w3.org/1999/xlink">
    <title>Portions</title>
    <g id="Portions" stroke="none" stroke-width="1" fill="none" fill-rule="evenodd">
        <g id="icon__portions" transform="translate(1.000000, 1.000000)">
            <path d="M35.0000245,70 C54.3299496,70 70,54.3299578 70,34.999951 C70,15.6700259 54.3299496,0 35.0000245,0 C15.6700177,0 0,15.6700259 0,34.999951 C0,54.3299578 15.6700177,70 35.0000245,70 Z" id="Path" stroke="#B29A7A" stroke-width="2"></path>
            <path d="M27.5812479,61.8895368 C32.0857004,61.8895368 35.7372577,58.2379795 35.7372577,53.733527 C35.7372577,49.2289929 32.0857004,45.5774356 27.5812479,45.5774356 C23.0767954,45.5774356 19.4252382,49.2289929 19.4252382,53.733527 C19.4252382,58.2379795 23.0767954,61.8895368 27.5812479,61.8895368 Z" id="Path" stroke="#B29A7A" stroke-width="2"></path>
            <path d="M14.3459038,38.2951354 C12.99869,39.8243719 10.2769184,39.1598662 9.51234094,37.0844796 C6.95447144,30.1391256 7.92841594,22.4563752 12.7619788,16.9856509 C17.6046835,11.5057846 25.1053295,9.59421855 32.3146574,11.260013 C34.4719951,11.7606982 35.4642235,14.3822349 34.1170098,15.911553 L14.3459038,38.3041957 L14.3459038,38.2951354 Z" id="Path" stroke="#B29A7A" stroke-width="2"></path>
            <path d="M34.3809837,15.5382022 C34.5812904,15.592809 34.7724552,15.6564762 34.9726803,15.711083 C37.2210293,16.4211353 38.4954339,19.133765 37.2756362,20.5173832 L19.3160245,40.8528416 C18.0870848,42.2364599 15.2470391,41.3079803 14.2548923,39.1688449 C14.1729413,38.9776801 14.0819299,38.7956573 14.0091207,38.6044925" id="Path" stroke="#B29A7A" stroke-width="2"></path>
            <path d="M12.3250424,34.4449039 C13.4992936,34.4449039 13.4992936,32.6243492 12.3250424,32.6243492 C11.1507912,32.6243492 11.1507912,34.4449039 12.3250424,34.4449039 Z" id="Path" fill="#B29A7A" fill-rule="nonzero"></path>
            <path d="M12.1520799,26.1704568 C13.3263311,26.1704568 13.3263311,24.3499022 12.1520799,24.3499022 C10.9778287,24.3499022 10.9778287,26.1704568 12.1520799,26.1704568 Z" id="Path" fill="#B29A7A" fill-rule="nonzero"></path>
            <path d="M19.2703964,26.9623785 C20.4446476,26.9623785 20.4446476,25.1418239 19.2703964,25.1418239 C18.0961451,25.1418239 18.0961451,26.9623785 19.2703964,26.9623785 Z" id="Path" fill="#B29A7A" fill-rule="nonzero"></path>
            <path d="M17.559137,19.6436737 C18.7333882,19.6436737 18.7333882,17.8231191 17.559137,17.8231191 C16.3848858,17.8231191 16.3848858,19.6436737 17.559137,19.6436737 Z" id="Path" fill="#B29A7A" fill-rule="nonzero"></path>
            <path d="M24.2223148,20.6994061 C25.396566,20.6994061 25.396566,18.8788514 24.2223148,18.8788514 C23.0480636,18.8788514 23.0480636,20.6994061 24.2223148,20.6994061 Z" id="Path" fill="#B29A7A" fill-rule="nonzero"></path>
            <path d="M25.059783,14.855739 C26.2340342,14.855739 26.2340342,13.0351844 25.059783,13.0351844 C23.8855318,13.0351844 23.8855318,14.855739 25.059783,14.855739 Z" id="Path" fill="#B29A7A" fill-rule="nonzero"></path>
            <path d="M50.2470065,53.4966525 C47.3159494,53.9517911 44.7672219,53.7697683 43.0558809,52.4863034 C42.4915285,52.0675693 42.7555024,51.1663523 43.4564127,51.0935432 C44.5669151,50.9752692 45.8139755,50.7294975 46.7242528,50.2470146 C48.7633165,49.1819771 50.1105302,48.299044 51.7307781,45.3952495 C52.7684714,43.5382903 53.4693817,41.7541402 55.5903148,41.5357129 C56.2457602,41.4719641 59.031199,41.4082969 59.5773491,44.4121631 C60.5694959,49.8556248 54.2340408,52.8776933 50.2470065,53.4966525 L50.2470065,53.4966525 Z" id="Path" stroke="#B29A7A" stroke-width="2" stroke-linecap="round"></path>
            <line x1="58.0481126" y1="42.0363164" x2="59.2587683" y2="39.6150048" id="Path" stroke="#B29A7A" stroke-width="2" stroke-linecap="round"></line>
            <path d="M55.5903964,26.0700586 C54.725584,32.3327862 48.9544812,36.7020684 42.6917536,35.8373376 L45.8231174,13.1714974 C52.085845,14.0363099 56.4551272,19.8074126 55.5903964,26.0700586 L55.5903964,26.0700586 Z" id="Path" stroke="#B29A7A" stroke-width="2" stroke-linejoin="round"></path>
            <line x1="55.5903148" y1="26.0701402" x2="44.2573947" y2="24.5044991" id="Path" stroke="#B29A7A" stroke-width="2" stroke-linejoin="round"></line>
            <line x1="53.351026" y1="17.5225774" x2="44.2301321" y2="24.4315268" id="Path" stroke="#B29A7A" stroke-width="2" stroke-linejoin="round"></line>
            <line x1="51.1300212" y1="33.6979573" x2="44.2210718" y2="24.5770634" id="Path" stroke="#B29A7A" stroke-width="2" stroke-linejoin="round"></line>
        </g>
    </g>
</svg>