<?xml version="1.0" encoding="UTF-8"?>
<svg width="132px" height="48px" viewBox="0 0 132 48" version="1.1" xmlns="http://www.w3.org/2000/svg" xmlns:xlink="http://www.w3.org/1999/xlink">
    <title>logo__hsoc</title>
    <g id="Screens-[Front-End]" stroke="none" stroke-width="1" fill="none" fill-rule="evenodd">
        <g id="Landing-Page-[Partner]" transform="translate(-799.000000, -497.000000)" fill="#999999" fill-rule="nonzero">
            <g id="Hero" transform="translate(0.000000, 88.000000)">
                <g id="Image" transform="translate(751.000000, 64.000000)">
                    <g id="Content" transform="translate(24.000000, 321.000000)">
                        <g id="logo__hsoc" transform="translate(24.000000, 24.000000)">
                            <g id="Group" transform="translate(64.468619, 0.000000)">
                                <path d="M20.4853556,48 C16.4686192,41.0280932 21.4608488,35.4620442 21.4608488,35.4620442 C21.4608488,35.4620442 23.0101614,33.1380753 24.559474,34.1709504 C26.1087866,35.2038255 24.6168559,36.9252839 24.6168559,36.9252839 C20.8583383,40.7985655 22.1781231,43.8111178 22.1781231,43.8111178 C22.1781231,43.8111178 25.2193664,36.4375374 37.7860132,41.1715481 C37.7860132,41.1715481 38.1876868,40.138673 39.1344889,39.3927077 L38.9049611,35.8637179 L42.0322773,37.958159 L43.0651524,38.0155409 L46.5080693,36.4949193 L45.8768679,39.3066348 C45.8768679,39.3066348 48.1721458,40.5690377 47.4548715,42.8356246 C46.7949791,44.8726838 44.9587567,45.1309026 44.9587567,45.1309026 C44.9587567,45.1309026 45.733413,46.7949791 45.733413,47.9426181 L20.4853556,48" id="Path"></path>
                                <path d="M66.6204423,24.0430365 L56.0621638,24.0430365 L56.0621638,47.971309 L51.4716079,47.971309 C52.6766288,46.4793784 59.8493724,36.7244471 49.3197848,25.8792588 C49.3197848,25.8792588 51.7011357,32.0191273 48.9181112,35.3472803 C48.9181112,35.3472803 44.4423192,29.5230126 35.691572,33.5684399 C26.9408249,37.6138673 23.2970711,28.7770472 23.2970711,28.7770472 L27.2564256,27.7441721 L27.4572624,25.5636581 L28.7196653,24.7316198 L28.7196653,23.2683802 L20.8009564,21.6043036 L19.6533174,15.9808727 L16.2104005,20.2558279 L11.7346085,17.3293485 L15.4931261,45.7047221 C15.4931261,45.7047221 10.9886432,45.4751943 10.7591154,47.9426181 L9.18111178,47.9426181 L9.18111178,23.6126718 L0,23.4979079 L32.5642558,-8.28187887e-16 L66.6204423,24.0430365 M32.7364017,20.7435744 C32.7364017,20.7435744 33.9988045,19.4811715 35.9210998,18.3909145 C38.1589958,17.0998207 39.9378362,15.0340705 38.3885236,12.3658099 C36.6096832,9.32456665 32.7077107,11.6485356 32.7077107,11.6485356 L32.6790197,11.6485356 C32.6790197,11.6485356 28.9491931,9.43933054 27.0268978,12.3658099 C25.3628213,14.9193066 27.8302451,17.3006575 30.2402869,18.7352062 C31.6174537,19.5672445 32.7364017,20.7435744 32.7364017,20.7435744 Z" id="Shape"></path>
                            </g>
                            <g id="Group" transform="translate(0.000000, 13.312612)">
                                <path d="M0.688583383,2.03861634e-15 L2.41004184,2.03861634e-15 L2.41004184,3.58637179 C2.8977884,3.06993425 3.67244471,2.41004184 5.19306635,2.41004184 C6.74237896,2.41004184 8.11954573,3.06993425 8.11954573,5.33652122 L8.11954573,10.1279139 L6.39808727,10.1279139 L6.39808727,5.96772265 C6.39808727,4.50448296 5.93903168,3.87328153 4.79139271,3.87328153 C3.41422594,3.87328153 2.86909743,4.44710102 2.41004184,4.96353855 L2.41004184,10.1279139 L0.688583383,10.1279139 L0.688583383,2.03861634e-15" id="Path"></path>
                                <path d="M17.7310221,10.1279139 L16.0382546,10.1279139 L16.0382546,9.18111178 C15.5218171,9.69754931 14.7471608,10.3574417 13.2265392,10.3574417 C11.6772265,10.3574417 10.3000598,9.69754931 10.3000598,7.43096234 L10.3000598,2.63956964 L12.0215182,2.63956964 L12.0215182,6.79976091 C12.0215182,8.2630006 12.4518828,8.89420203 13.6282128,8.89420203 C15.0053796,8.89420203 15.5505081,8.32038255 15.9808727,7.80394501 L15.9808727,2.63956964 L17.7023311,2.63956964 L17.7310221,10.1279139" id="Path"></path>
                                <path d="M19.8828452,2.66826061 L21.5756127,2.66826061 L21.5756127,3.52898984 C22.0346683,3.1273162 22.6658697,2.43873282 24.1004184,2.43873282 C25.62104,2.43873282 26.1948595,3.15600717 26.5391512,3.64375374 C26.9408249,3.18469815 27.7154812,2.43873282 29.1787209,2.43873282 C30.8427974,2.43873282 32.0478183,3.1273162 32.0478183,4.87746563 L32.0478183,10.1566049 L30.3263598,10.1566049 L30.3263598,5.62343096 C30.3263598,4.36102809 29.8959952,3.9019725 28.8344292,3.9019725 C27.9736999,3.9019725 27.2564256,4.47579199 26.8547519,4.84877466 L26.8547519,10.1566049 L25.1332935,10.1566049 L25.1332935,5.62343096 C25.1332935,4.36102809 24.7029289,3.9019725 23.6413628,3.9019725 C22.7806336,3.9019725 22.0633592,4.47579199 21.6616856,4.84877466 L21.6616856,10.1566049 L19.9402271,10.1566049 L19.8828452,2.66826061" id="Path"></path>
                                <path d="M41.6019127,8.92289301 C41.6019127,9.41063957 41.6306037,9.92707711 41.7453676,10.1279139 L39.9665272,10.1279139 C39.9091452,9.86969516 39.8804543,9.61147639 39.8804543,9.3819486 C39.1631799,9.81231321 38.0729229,10.3861327 36.6096832,10.3861327 C35.6341901,10.3861327 33.7118948,9.95576808 33.7118948,8.11954573 C33.7118948,5.59473999 37.4704124,5.2504483 39.8804543,5.10699342 L39.8804543,4.76270173 C39.8804543,4.18888225 39.3640167,3.78720861 37.958159,3.78720861 C36.3801554,3.78720861 36.0358637,4.36102809 35.9497908,4.76270173 L34.1422594,4.76270173 C34.572624,2.72564256 36.5523013,2.38135087 37.958159,2.38135087 C41.5732218,2.38135087 41.6306037,4.1315003 41.6306037,5.16437537 L41.6019127,8.92289301 M39.8804543,6.36939629 C38.8762702,6.42677824 38.0155409,6.54154214 37.1835027,6.74237896 C36.1219366,7.00059773 35.6054991,7.34488942 35.6054991,8.00478183 C35.5768081,8.63598326 36.0071727,9.0376569 36.867902,9.0376569 C38.1876868,9.0376569 39.2205619,8.46383742 39.8804543,8.06216378 L39.8804543,6.36939629 Z" id="Shape"></path>
                                <path d="M43.8111178,2.66826061 L45.5038852,2.66826061 L45.5038852,3.61506276 C46.0490137,3.09862522 46.7949791,2.43873282 48.3156007,2.43873282 C49.8649133,2.43873282 51.2420801,3.09862522 51.2420801,5.36521219 L51.2420801,10.1566049 L49.5206216,10.1566049 L49.5206216,5.99641363 C49.5206216,4.53317394 49.090257,3.9019725 47.9139271,3.9019725 C46.5367603,3.9019725 45.9629408,4.47579199 45.5325762,4.99222953 L45.5325762,10.1566049 L43.8111178,10.1566049 L43.8111178,2.66826061" id="Path"></path>
                                <path d="M61.1691572,7.91870891 C61.0543933,8.52121937 60.0502092,10.4148237 57.2671847,10.4148237 C54.5989241,10.4148237 52.9922295,8.75074716 52.9922295,6.39808727 C52.9922295,4.27495517 54.3980873,2.43873282 57.1524208,2.43873282 C59.9641363,2.46742379 61.3126121,4.21757322 61.3126121,6.91452481 L54.742379,6.91452481 C54.7997609,7.37358039 55.0866707,8.95158398 57.2098027,9.0376569 C58.3000598,9.0376569 59.0173341,8.52121937 59.2755529,7.94739988 L61.1691572,7.91870891 M59.4476987,5.56604901 C59.18948,4.30364614 58.3287507,3.81589958 57.0950389,3.81589958 C56.1769277,3.81589958 55.1440526,4.1315003 54.7997609,5.56604901 L59.4476987,5.56604901 Z" id="Shape"></path>
                                <path d="M6.54154214,18.7065152 C6.2546324,18.3622236 5.65212194,17.5014943 4.0167364,17.5014943 C2.72564256,17.5014943 2.29527794,17.9892409 2.29527794,18.4482965 C2.29527794,19.0508069 3.04124328,19.1368799 4.10280932,19.3090257 C6.22594142,19.5959354 8.1482367,19.9115362 8.1482367,21.8051405 C8.1482367,24.0717274 5.53735804,24.3299462 4.30364614,24.3299462 C1.63538553,24.3299462 0.80334728,23.2683802 0.143454871,22.4363419 L1.66407651,21.5756127 C2.26658697,22.5797968 3.35684399,22.8953975 4.47579199,22.8953975 C5.42259414,22.8953975 6.28332337,22.6084877 6.28332337,21.9199044 C6.28332337,21.3173939 5.85295876,21.260012 3.95935445,21.0017932 C1.03287507,20.6288105 0.430364614,19.6820084 0.430364614,18.5056784 C0.430364614,17.7023311 1.06156605,16.0382546 4.07411835,16.0382546 C4.96353855,16.0382546 6.85714286,16.2390915 8.0334728,17.874477 L6.54154214,18.7065152" id="Path"></path>
                                <path d="M9.81231321,20.1984459 C9.81231321,18.1326958 11.0747161,16.0956366 14.1446503,16.0956366 C17.2145846,16.0956366 18.4769874,18.1326958 18.4769874,20.1984459 C18.4769874,23.2683802 16.2677824,24.3299462 14.1446503,24.3299462 C12.0215182,24.3012552 9.81231321,23.2683802 9.81231321,20.1984459 M16.6407651,20.1697549 C16.6407651,18.3622236 15.4644351,17.6162582 14.1159594,17.6162582 C12.7387926,17.6162582 11.5911536,18.3622236 11.5911536,20.1697549 C11.5911536,21.8051405 12.5092648,22.8093246 14.1159594,22.8093246 C15.7226539,22.7806336 16.6407651,21.8051405 16.6407651,20.1697549 Z" id="Shape"></path>
                                <path d="M28.8344292,21.3173939 C28.5762104,22.4076509 27.5146444,24.3299462 24.6742379,24.3299462 C22.2068141,24.3299462 20.1697549,23.1249253 20.1697549,20.0263001 C20.1697549,17.9892409 21.7764495,16.1243276 24.5020921,16.0956366 C27.3424985,16.0956366 28.5475194,17.7023311 28.6622833,19.022116 L26.8834429,19.022116 C26.7112971,18.3909145 25.9366408,17.6162582 24.6168559,17.6162582 C22.9240885,17.6162582 21.9772863,18.8499701 21.9772863,20.083682 C21.9772863,21.5756127 22.7806336,22.8093246 24.4734011,22.8093246 C26.0227137,22.8093246 26.79737,22.0059773 26.9408249,21.3173939 L28.8344292,21.3173939" id="Path"></path>
                                <path d="M31.21578,16.3538553 L32.9946204,16.3538553 L32.9946204,24.0717274 L31.21578,24.0717274 L31.21578,16.3538553 M31.21578,13.369994 L32.9946204,13.369994 L32.9946204,14.9479976 L31.21578,14.9479976 L31.21578,13.369994 Z" id="Shape"></path>
                                <path d="M43.8684997,21.7477585 C43.7537358,22.37896 42.6921698,24.3299462 39.8517633,24.3299462 C37.0974298,24.3299462 35.4333533,22.6084877 35.4333533,20.1984459 C35.4333533,18.0179319 36.867902,16.0956366 39.7083084,16.0956366 C42.6060968,16.1243276 44.0119546,17.9318589 44.0119546,20.7148834 L37.2408846,20.7148834 C37.2982666,21.20263 37.5851763,22.8093246 39.7943814,22.8953975 C40.9133293,22.8953975 41.6592947,22.350269 41.9175134,21.7477585 L43.8684997,21.7477585 M42.1183503,19.3377167 C41.8601315,18.0179319 40.9420203,17.5301853 39.6796175,17.5301853 C38.7328153,17.5301853 37.6712493,17.845786 37.2982666,19.3377167 L42.1183503,19.3377167 Z" id="Shape"></path>
                                <path d="M45.4751943,16.6120741 L46.852361,16.6120741 L46.852361,14.0872684 L48.6312014,14.0872684 L48.6312014,16.6120741 L51.328153,16.6120741 L51.328153,18.1326958 L48.6312014,18.1326958 L48.6312014,21.6616856 C48.6312014,22.2068141 48.8607292,22.8093246 49.8936043,22.8093246 C50.237896,22.8093246 50.9551704,22.7232516 51.4142259,22.5797968 L51.4142259,24.1578004 C50.5248057,24.2725643 50.1231321,24.3299462 49.4919307,24.3299462 C47.7991632,24.3299462 46.852361,23.7848177 46.852361,22.0920502 L46.852361,18.1326958 L45.4751943,18.1326958 L45.4751943,16.6120741" id="Path"></path>
                                <path d="M53.0783025,24.9611476 C53.3078302,25.0185296 53.7095039,25.1332935 54.1685595,25.1332935 C55.6317992,25.1332935 56.1195457,24.5020921 56.1195457,23.9282726 C56.1195457,23.5839809 56.0621638,23.2396892 55.803945,22.7232516 L52.7053198,16.3538553 L54.656306,16.3538553 L57.2671847,21.9772863 L59.8780634,16.3538553 L61.8290496,16.3538553 L57.8123132,24.6742379 C57.1237298,26.1374776 56.0047818,26.7112971 54.5989241,26.7112971 C53.9103407,26.7112971 53.3652122,26.5965332 53.0496115,26.4817693 L53.0783025,24.9611476" id="Path"></path>
                                <path d="M8.28187887e-16,32.39211 C8.28187887e-16,31.273162 0.688583383,30.154214 2.35265989,30.154214 C4.0167364,30.154214 4.70531978,31.273162 4.70531978,32.39211 C4.70531978,34.0561865 3.50029886,34.630006 2.35265989,34.630006 C1.20502092,34.630006 8.28187887e-16,34.0561865 8.28187887e-16,32.39211 M3.72982666,32.363419 C3.72982666,31.3879259 3.09862522,30.9575613 2.35265989,30.9575613 C1.60669456,30.9575613 0.975493126,31.3592349 0.975493126,32.363419 C0.975493126,33.2528392 1.46323969,33.7979677 2.35265989,33.7979677 C3.21338912,33.7979677 3.72982666,33.2528392 3.72982666,32.363419 Z" id="Shape"></path>
                                <path d="M6.97190675,34.4865511 L6.97190675,31.244471 L6.0251046,31.244471 L6.0251046,30.4124328 L6.97190675,30.4124328 L6.97190675,29.9246862 C6.97190675,28.6335923 8.32038255,28.6335923 8.63598326,28.6335923 C9.00896593,28.6335923 9.2671847,28.6909743 9.69754931,28.7483562 L9.69754931,29.5803945 C9.18111178,29.4656306 9.06634788,29.4656306 8.83682008,29.4656306 C8.0334728,29.4369396 7.94739988,29.8386133 7.94739988,30.125523 L7.94739988,30.4124328 L9.46802152,30.4124328 L9.46802152,31.244471 L7.94739988,31.244471 L7.94739988,34.4865511 L6.97190675,34.4865511" id="Path"></path>
                                <path d="M19.4811715,32.9946204 C19.3377167,33.5684399 18.7638972,34.630006 17.2145846,34.630006 C15.8661088,34.630006 14.7471608,33.9701136 14.7471608,32.2773461 C14.7471608,31.1870891 15.60789,30.154214 17.1285117,30.154214 C18.6778243,30.154214 19.3377167,31.0436342 19.3950986,31.7322176 L18.4196055,31.7322176 C18.3335326,31.3879259 17.903168,30.9575613 17.1858936,30.9575613 C16.2677824,30.9575613 15.7513449,31.6174537 15.7513449,32.3060371 C15.7513449,33.1093843 16.1817095,33.7979677 17.0998207,33.7979677 C17.9318589,33.7979677 18.3622236,33.3676031 18.4482965,32.9946204 L19.4811715,32.9946204" id="Path"></path>
                                <path d="M21.173939,28.8057382 L22.1494322,28.8057382 L22.1494322,30.8141064 C22.4363419,30.5271967 22.8667065,30.154214 23.6987448,30.154214 C24.588165,30.154214 25.3341303,30.5271967 25.3341303,31.8182905 L25.3341303,34.5152421 L24.3586372,34.5152421 L24.3586372,32.1912732 C24.3586372,31.3592349 24.1004184,31.0149432 23.469217,31.0149432 C22.6945607,31.0149432 22.37896,31.3305439 22.1494322,31.6461447 L22.1494322,34.5439331 L21.173939,34.5439331 L21.173939,28.8057382" id="Path"></path>
                                <path d="M31.5026898,33.8266587 C31.5026898,34.1135684 31.5313808,34.4004782 31.5887627,34.5152421 L30.5845786,34.5152421 C30.5558876,34.3717872 30.5271967,34.2283323 30.5271967,34.0848775 C30.125523,34.3144053 29.5230126,34.658697 28.6909743,34.658697 C28.1458458,34.658697 27.0555888,34.4291692 27.0555888,33.3962941 C27.0555888,31.9904363 29.1787209,31.7895995 30.5271967,31.7035266 L30.5271967,31.5026898 C30.5271967,31.1870891 30.2402869,30.9575613 29.4369396,30.9575613 C28.5475194,30.9575613 28.3466826,31.273162 28.2893007,31.5026898 L27.3138075,31.5026898 C27.5433353,30.3550508 28.6622833,30.154214 29.4656306,30.154214 C31.5026898,30.154214 31.5313808,31.1297071 31.5313808,31.7322176 L31.5026898,33.8266587 M30.5558876,32.39211 C29.9820681,32.420801 29.4943216,32.4781829 29.035266,32.5929468 C28.4327555,32.7364017 28.1458458,32.9372385 28.1458458,33.3102212 C28.1458458,33.6545129 28.3753736,33.8840406 28.8631201,33.8840406 C29.6090855,33.8840406 30.182905,33.5684399 30.5558876,33.3389121 L30.5558876,32.39211 L30.5558876,32.39211 Z" id="Shape"></path>
                                <path d="M33.511058,30.2976689 L34.4865511,30.2976689 L34.4865511,30.9288703 L34.5152421,30.9288703 C34.7160789,30.5845786 35.1464435,30.154214 35.9784818,30.154214 C36.1219366,30.154214 36.2080096,30.154214 36.3227735,30.182905 L36.3227735,31.244471 C36.2367005,31.21578 36.0645547,31.1583981 35.720263,31.1583981 C34.4865511,31.1583981 34.4865511,31.9904363 34.4865511,32.2773461 L34.4865511,34.5152421 L33.511058,34.5152421 L33.511058,30.2976689" id="Path"></path>
                                <polyline id="Path" points="37.98685 28.8057382 38.9623431 28.8057382 38.9623431 34.5152421 37.98685 34.5152421 37.98685 28.8057382"></polyline>
                                <path d="M40.7411835,32.39211 C40.7411835,31.273162 41.4297669,30.154214 43.0938434,30.154214 C44.7579199,30.154214 45.4465033,31.273162 45.4465033,32.39211 C45.4465033,34.0561865 44.2414824,34.630006 43.0938434,34.630006 C41.9462044,34.658697 40.7411835,34.0848775 40.7411835,32.39211 M44.4710102,32.39211 C44.4710102,31.4166169 43.8398087,30.9862522 43.0938434,30.9862522 C42.3478781,30.9862522 41.7166766,31.3879259 41.7166766,32.39211 C41.7166766,33.2815302 42.2044232,33.8266587 43.0938434,33.8266587 C43.9832636,33.8266587 44.4710102,33.2815302 44.4710102,32.39211 Z" id="Shape"></path>
                                <path d="M46.7375971,30.4411237 L47.4835625,30.4411237 L47.4835625,29.063957 L48.4590556,29.063957 L48.4590556,30.4411237 L49.9222953,30.4411237 L49.9222953,31.273162 L48.4590556,31.273162 L48.4590556,33.1954573 C48.4590556,33.482367 48.5738195,33.8266587 49.147639,33.8266587 C49.3484758,33.8266587 49.7214585,33.7692767 49.9796772,33.7118948 L49.9796772,34.572624 C49.4919307,34.630006 49.2624029,34.658697 48.9181112,34.658697 C48,34.658697 47.4835625,34.3717872 47.4835625,33.4249851 L47.4835625,31.273162 L46.7375971,31.273162 L46.7375971,30.4411237" id="Path"></path>
                                <path d="M51.1273162,30.4411237 L51.8732815,30.4411237 L51.8732815,29.063957 L52.8487747,29.063957 L52.8487747,30.4411237 L54.3120143,30.4411237 L54.3120143,31.273162 L52.8487747,31.273162 L52.8487747,33.1954573 C52.8487747,33.482367 52.9635386,33.8266587 53.537358,33.8266587 C53.7381949,33.8266587 54.1111775,33.7692767 54.3693963,33.7118948 L54.3693963,34.572624 C53.8816497,34.630006 53.6521219,34.658697 53.3078302,34.658697 C52.3897191,34.658697 51.8732815,34.3717872 51.8732815,33.4249851 L51.8732815,31.273162 L51.1273162,31.273162 L51.1273162,30.4411237" id="Path"></path>
                                <path d="M60.3371189,33.2528392 C60.279737,33.5971309 59.7059175,34.658697 58.1566049,34.658697 C56.6646742,34.658697 55.7465631,33.7118948 55.7465631,32.39211 C55.7465631,31.1870891 56.5212194,30.154214 58.070532,30.154214 C59.6485356,30.154214 60.4231919,31.1583981 60.4231919,32.6790197 L56.7220562,32.6790197 C56.7507472,32.9372385 56.922893,33.8266587 58.099223,33.8840406 C58.7017334,33.8840406 59.132098,33.5971309 59.2468619,33.2528392 L60.3371189,33.2528392 M59.3903168,31.9330544 C59.2468619,31.21578 58.7591154,30.9575613 58.070532,30.9575613 C57.5540944,30.9575613 56.980275,31.1297071 56.7794381,31.9330544 L59.3903168,31.9330544 Z" id="Shape"></path>
                            </g>
                        </g>
                    </g>
                </g>
            </g>
        </g>
    </g>
</svg>